<?xml version="1.0" encoding="UTF-8"?><svg xmlns="http://www.w3.org/2000/svg" viewBox="0 0 256 256"><rect width="256" height="256" rx="28" fill="#E3F2FD"/><circle cx="128" cy="128" r="104" fill="#fff" opacity=".8"/><path d="M112 38l28 10 18 24 25 9-8 22 16 17-18 17-5 25-22 18-8 28-27-7-15-22-25-10 7-24-14-19 19-18 2-24 19-12z" fill="#168447" stroke="#0d5f34" stroke-width="4"/><path d="M119 56l17 6-4 24 14 14-17 11-8 25-17-8-15-15 7-16 13-8z" fill="#fff"/><path d="M135 62l17 9-7 18-14-8z" fill="#168447"/></svg>
